# xmcd
#
# Track frame offsets:
#	150
#	17165
#	34567
#	52791
#	76564
#	93366
#	113691
#	128992
#	146319
#	165217
#	182470
#	200693
#	221919
#
# Disc length: 3201 seconds
#
# Revision: 1
# Processed by: cddbd v1.5.1PL2 Copyright (c) Steve Scherf et al.
# Submitted via: EasyCDDAExtractor 6.5.7.1
#
DISCID=9a0c7f0d
DTITLE=EL CHAVAL - NO TE LLAMO MAS
DYEAR=2005
DGENRE=Latin
TTITLE0=MUJER DE COLMADON
TTITLE1=TENGO GANAS DE ELLA
TTITLE2=QUE TE PASA AMIGO (F. EL JEFFREY)
TTITLE3=LO QUE QUIERAS DE MI
TTITLE4=NO TE LLAMO MAS
TTITLE5=NOCHE DE BODAS
TTITLE6=QUE TE VAYA BIEN
TTITLE7=TE SIGO QUERIENDO
TTITLE8=TIENES LA RAZON
TTITLE9=TENGO
TTITLE10=YA ME HAN DICHO
TTITLE11=OYE MI CONGA (VERSION MUEVE TU COLA)
TTITLE12=ESTOY PERIDO (REMIX)
EXTD=
EXTT0=
EXTT1=
EXTT2=
EXTT3=
EXTT4=
EXTT5=
EXTT6=
EXTT7=
EXTT8=
EXTT9=
EXTT10=
EXTT11=
EXTT12=
PLAYORDER=
